<?xml version="1.0" encoding="utf-8"?>
<!-- Generator: Adobe Illustrator 23.1.1, SVG Export Plug-In . SVG Version: 6.00 Build 0)  -->
<svg version="1.1" id="Ebene_1" xmlns="http://www.w3.org/2000/svg" xmlns:xlink="http://www.w3.org/1999/xlink" x="0px" y="0px"
	 viewBox="0 0 848.3 121.6" style="enable-background:new 0 0 848.3 121.6;" xml:space="preserve">
<style type="text/css">
	.st0{fill:#2B2B2B;}
	.st1{fill:#2C2F7B;}
	.st2{fill:#D4EDEF;}
	.st3{fill:#455084;}
	.st4{fill:#323987;}
	.st5{fill:#0E71B8;}
	.st6{fill:#2995C1;}
	.st7{fill:#16ADB9;}
	.st8{fill:#6BDBC8;}
	.st9{fill:#00C9BC;}
	.st10{fill:#8BDBD4;}
	.st11{fill:#B7E5E6;}
</style>
<title>logo_horizontal_dark</title>
<g>
	<g id="LOGO_7">
		<path id="_Zusammengesetzter_Pfad_" class="st0" d="M271.1,84.8v-7.3c0-0.8,0.7-1.5,1.5-1.5l0,0H284c0.8,0,1.5-0.7,1.5-1.5
			c0-0.2-0.1-0.5-0.2-0.7l-13-23.8c-0.4-0.7-1.3-1-2-0.6c-0.3,0.1-0.5,0.3-0.6,0.6l-19,35.4c-0.3,0.5-0.8,0.8-1.3,0.8h-9.6
			c-0.8,0-1.5-0.7-1.5-1.5c0-0.3,0.1-0.5,0.2-0.7L265.5,36c0.3-0.5,0.7-0.7,1.3-0.8h8.5c0.5,0,1,0.3,1.3,0.8l27.1,48.1
			c0.4,0.7,0.2,1.6-0.5,2c-0.2,0.1-0.5,0.2-0.7,0.2h-29.9C271.7,86.3,271.1,85.6,271.1,84.8z"/>
		<path id="_Zusammengesetzter_Pfad_2" class="st0" d="M411.8,86.3h-48.1c-0.8,0-1.5-0.7-1.5-1.5l0,0V36.7c0-0.8,0.7-1.5,1.5-1.5
			l0,0h7.3c0.8,0,1.5,0.7,1.5,1.5c0,0,0,0,0,0v37.9c0,0.8,0.7,1.5,1.5,1.5l0,0h27.7c0.8,0,1.5-0.7,1.5-1.5l0,0v-7.3
			c0-0.8,0.7-1.5,1.5-1.5l0,0h7.3c0.8,0,1.5,0.7,1.5,1.5l0,0v17.5C413.3,85.7,412.6,86.3,411.8,86.3
			C411.8,86.3,411.8,86.3,411.8,86.3z"/>
		<path id="_Zusammengesetzter_Pfad_3" class="st0" d="M484.5,86.3h-7.3c-0.8,0-1.5-0.7-1.5-1.5l0,0V36.7c0-0.8,0.7-1.5,1.5-1.5l0,0
			h48.1c0.8,0,1.5,0.7,1.5,1.5v27.7c0,0.8-0.7,1.5-1.5,1.5h-37.9c-0.8,0-1.5,0.7-1.5,1.5c0,0,0,0,0,0v17.5
			C486,85.7,485.3,86.3,484.5,86.3C484.5,86.3,484.5,86.3,484.5,86.3z M516.6,54.2V47c0-0.8-0.7-1.5-1.5-1.5h-27.7
			c-0.8,0-1.5,0.7-1.5,1.5v7.3c0,0.8,0.7,1.5,1.5,1.5l0,0h27.7C516,55.7,516.6,55,516.6,54.2z"/>
		<path id="_Zusammengesetzter_Pfad_4" class="st0" d="M599.5,36.7v48.1c0,0.8-0.7,1.5-1.5,1.5h-7.3c-0.8,0-1.5-0.7-1.5-1.5V36.7
			c0-0.8,0.7-1.5,1.5-1.5h7.3C598.9,35.3,599.5,35.9,599.5,36.7z"/>
		<path id="_Pfad_" class="st0" d="M801.1,35.3h-19.4c-0.3,0-0.5,0.7-0.5,1.5V44c0,0.8,0.2,1.5,0.5,1.5h10.6v39.4
			c0,0.8,0.7,1.5,1.5,1.5h7.3c0.8,0,1.5-0.7,1.5-1.5V36.7C802.6,35.9,801.9,35.3,801.1,35.3z"/>
		<path id="_Pfad_2" class="st0" d="M846.8,35.3h-19.4c-0.3,0-0.5,0.7-0.5,1.5V44c0,0.8,0.2,1.5,0.5,1.5H838v39.4
			c0,0.8,0.7,1.5,1.5,1.5h7.3c0.8,0,1.5-0.7,1.5-1.5V36.7C848.2,36,847.6,35.3,846.8,35.3z"/>
		<path id="_Zusammengesetzter_Pfad_5" class="st0" d="M662,84.8V36.7c0-0.8,0.7-1.5,1.5-1.5h8c0.4,0,0.8,0.2,1.1,0.5l27.7,32.6
			c0.5,0.6,1.4,0.7,2.1,0.2c0.4-0.3,0.5-0.7,0.5-1.2V36.7c0-0.8,0.7-1.5,1.5-1.5h7.3c0.8,0,1.5,0.7,1.5,1.5v48.1
			c0,0.8-0.7,1.5-1.5,1.5h-8.1c-0.4,0-0.8-0.2-1.1-0.5l-27.6-31.6c-0.5-0.6-1.5-0.7-2.1-0.1c-0.3,0.3-0.5,0.7-0.5,1.1v29.7
			c0,0.8-0.7,1.5-1.5,1.5h-7.3C662.7,86.3,662,85.7,662,84.8C662,84.9,662,84.9,662,84.8z"/>
	</g>
</g>
<g id="XMLID_272_">
	<polygon id="XMLID_294_" class="st1" points="23.4,81.1 35.1,101.3 46.8,121.6 23.4,121.6 0,121.6 11.7,101.3 	"/>
	<polygon id="XMLID_288_" class="st2" points="163.8,81.1 175.5,101.3 187.2,121.6 163.8,121.6 140.4,121.6 152.1,101.3 	"/>
	<polygon id="XMLID_285_" class="st3" points="46.8,40.5 58.5,60.8 70.2,81.1 46.8,81.1 23.4,81.1 35.1,60.8 	"/>
	<polygon id="XMLID_284_" class="st4" points="46.8,121.6 35.1,101.3 23.4,81.1 46.8,81.1 70.2,81.1 58.5,101.3 	"/>
	<polygon id="XMLID_283_" class="st5" points="70.2,81.1 58.5,60.8 46.8,40.5 70.2,40.5 93.6,40.5 81.9,60.8 	"/>
	<polygon id="XMLID_282_" class="st6" points="70.2,0 58.5,20.3 46.8,40.5 70.2,40.5 93.6,40.5 81.9,20.3 	"/>
	<polygon id="XMLID_281_" class="st7" points="93.6,40.5 105.3,20.3 117,0 93.6,0 70.2,0 81.9,20.3 	"/>
	<polygon id="XMLID_280_" class="st8" points="117,81.1 128.7,60.8 140.4,40.5 117,40.5 93.6,40.5 105.3,60.8 	"/>
	<polygon id="XMLID_279_" class="st9" points="117,0 105.3,20.3 93.6,40.5 117,40.5 140.4,40.5 128.7,20.3 	"/>
	<polygon id="XMLID_276_" class="st10" points="140.4,40.5 128.7,60.8 117,81.1 140.4,81.1 163.8,81.1 152.1,60.8 	"/>
	<polygon id="XMLID_275_" class="st11" points="140.4,121.6 128.7,101.3 117,81.1 140.4,81.1 163.8,81.1 152.1,101.3 	"/>
</g>
</svg>
